<?xml version="1.0" encoding="iso-8859-1"?>
<!-- Generator: Adobe Illustrator 17.1.0, SVG Export Plug-In . SVG Version: 6.00 Build 0)  -->
<!DOCTYPE svg PUBLIC "-//W3C//DTD SVG 1.1//EN" "http://www.w3.org/Graphics/SVG/1.1/DTD/svg11.dtd">
<svg version="1.1" id="Capa_1" xmlns="http://www.w3.org/2000/svg" xmlns:xlink="http://www.w3.org/1999/xlink" x="0px" y="0px"
	 viewBox="0 0 511 511" style="enable-background:new 0 0 511 511;" xml:space="preserve">
<g>
	<path d="M487.5,32C474.542,32,464,42.542,464,55.5v52.386c-10.344-14.67-22.19-28.193-35.401-40.394
		c-3.043-2.811-7.788-2.622-10.598,0.421s-2.622,7.788,0.421,10.598c18.495,17.081,34.153,36.921,46.539,58.971
		c1.671,2.974,5.138,4.445,8.438,3.583c3.3-0.863,5.602-3.845,5.602-7.256V55.5c0-4.687,3.813-8.5,8.5-8.5s8.5,3.813,8.5,8.5v112
		c0,4.687-3.813,8.5-8.5,8.5h-112c-4.687,0-8.5-3.813-8.5-8.5s3.813-8.5,8.5-8.5h69.229c2.65,0,5.103-1.398,6.453-3.678
		c1.351-2.28,1.397-5.104,0.124-7.427C412.118,76.408,337.09,32,255.5,32C132.262,32,32,132.262,32,255.5
		c0,51.074,17.749,101.048,49.976,140.716c1.482,1.825,3.645,2.771,5.825,2.771c1.662,0,3.334-0.549,4.725-1.679
		c3.215-2.612,3.704-7.335,1.092-10.55C63.556,349.755,47,303.14,47,255.5C47,140.533,140.533,47,255.5,47
		c71.79,0,138.135,36.857,176.111,97H375.5c-12.958,0-23.5,10.542-23.5,23.5s10.542,23.5,23.5,23.5h112
		c12.958,0,23.5-10.542,23.5-23.5v-112C511,42.542,500.458,32,487.5,32z"/>
	<path d="M327.828,459.124c-5.444-3.13-11.78-3.949-17.838-2.31C292.338,461.583,274.005,464,255.5,464
		c-51.339,0-100.707-18.905-139.008-53.233c-3.085-2.765-7.827-2.505-10.591,0.579c-2.765,3.085-2.505,7.826,0.579,10.591
		C147.538,458.734,200.46,479,255.5,479c19.826,0,39.475-2.592,58.404-7.706c2.19-0.592,4.48-0.296,6.449,0.834
		c1.968,1.131,3.377,2.961,3.969,5.155c1.222,4.524-1.464,9.198-5.988,10.42C297.957,493.209,276.816,496,255.5,496
		C122.888,496,15,388.112,15,255.5S122.888,15,255.5,15c50.528,0,98.817,15.414,139.647,44.576c3.37,2.408,8.054,1.627,10.462-1.744
		c2.408-3.371,1.627-8.055-1.744-10.462C360.476,16.38,309.172,0,255.5,0C114.617,0,0,114.617,0,255.5S114.617,511,255.5,511
		c22.637,0,45.093-2.965,66.745-8.814c6.06-1.637,11.12-5.535,14.247-10.977c3.127-5.442,3.948-11.776,2.312-17.833
		C337.169,467.314,333.271,462.252,327.828,459.124z"/>
</g>
<g>
</g>
<g>
</g>
<g>
</g>
<g>
</g>
<g>
</g>
<g>
</g>
<g>
</g>
<g>
</g>
<g>
</g>
<g>
</g>
<g>
</g>
<g>
</g>
<g>
</g>
<g>
</g>
<g>
</g>
</svg>
